HIERARCHY
ROOT joint_Root
{
	OFFSET 0.0 0.0 0.0
	CHANNELS 6 Xposition Yposition Zposition Zrotation Xrotation Yrotation 
	JOINT Hips
	{
		OFFSET -0.726466 93.3139 -2.00062
		CHANNELS 6 Xposition Yposition Zposition Zrotation Xrotation Yrotation 
		JOINT Spine
		{
			OFFSET 15.7357 0.0 0.0
			CHANNELS 6 Xposition Yposition Zposition Zrotation Xrotation Yrotation 
			JOINT Chest
			{
				OFFSET 8.98455 -0.406207 0.0
				CHANNELS 6 Xposition Yposition Zposition Zrotation Xrotation Yrotation 
				JOINT Neck
				{
					OFFSET 16.3773 0.0 0.0
					CHANNELS 6 Xposition Yposition Zposition Zrotation Xrotation Yrotation 
					JOINT Head
					{
						OFFSET 6.45672 0.0 0.0
						CHANNELS 6 Xposition Yposition Zposition Zrotation Xrotation Yrotation 
						End Site
						{
							OFFSET 0.0 0.0 0.0
						}
					}
				}
				JOINT Shoulder_L
				{
					OFFSET 12.9942 -0.242716 4.98039
					CHANNELS 6 Xposition Yposition Zposition Zrotation Xrotation Yrotation 
					JOINT UpperArm_L
					{
						OFFSET 5.34809 0.0 0.0
						CHANNELS 6 Xposition Yposition Zposition Zrotation Xrotation Yrotation 
						JOINT LowerArm_L
						{
							OFFSET 24.3286 1.87007e-05 0.0
							CHANNELS 6 Xposition Yposition Zposition Zrotation Xrotation Yrotation 
							JOINT Hand_L
							{
								OFFSET 22.2916 0.0 0.0
								CHANNELS 6 Xposition Yposition Zposition Zrotation Xrotation Yrotation 
								End Site
								{
									OFFSET 0.0 0.0 0.0
								}
							}
						}
					}
				}
				JOINT Shoulder_R
				{
					OFFSET 12.9945 -0.242716 -4.98039
					CHANNELS 6 Xposition Yposition Zposition Zrotation Xrotation Yrotation 
					JOINT UpperArm_R
					{
						OFFSET -5.34813 0.0 0.0
						CHANNELS 6 Xposition Yposition Zposition Zrotation Xrotation Yrotation 
						JOINT LowerArm_R
						{
							OFFSET -24.3289 0.000322201 0.0
							CHANNELS 6 Xposition Yposition Zposition Zrotation Xrotation Yrotation 
							JOINT Hand_R
							{
								OFFSET -22.2915 -0.000108084 0.0
								CHANNELS 6 Xposition Yposition Zposition Zrotation Xrotation Yrotation 
								End Site
								{
									OFFSET 0.0 0.0 0.0
								}
							}
						}
					}
				}
			}
		}
		JOINT UpperLeg_L
		{
			OFFSET -2.19248 -6.46944 0.0
			CHANNELS 6 Xposition Yposition Zposition Zrotation Xrotation Yrotation 
			JOINT LowerLeg_L
			{
				OFFSET 39.0811 0.0 -1.23785e-05
				CHANNELS 6 Xposition Yposition Zposition Zrotation Xrotation Yrotation 
				JOINT Foot_L
				{
					OFFSET 40.9854 0.0 -1.26872e-05
					CHANNELS 6 Xposition Yposition Zposition Zrotation Xrotation Yrotation 
					JOINT Toes_L
					{
						OFFSET 11.7543 0.0 0.0
						CHANNELS 6 Xposition Yposition Zposition Zrotation Xrotation Yrotation 
						End Site
						{
							OFFSET 0.0 0.0 0.0
						}
					}
				}
			}
		}
		JOINT UpperLeg_R
		{
			OFFSET -2.19251 6.46944 0.0
			CHANNELS 6 Xposition Yposition Zposition Zrotation Xrotation Yrotation 
			JOINT LowerLeg_R
			{
				OFFSET -39.0811 -0.00228153 -0.0401928
				CHANNELS 6 Xposition Yposition Zposition Zrotation Xrotation Yrotation 
				JOINT Foot_R
				{
					OFFSET -40.9854 0.0 0.0
					CHANNELS 6 Xposition Yposition Zposition Zrotation Xrotation Yrotation 
					JOINT Toes_R
					{
						OFFSET -11.7543 0.0 0.0
						CHANNELS 6 Xposition Yposition Zposition Zrotation Xrotation Yrotation 
						End Site
						{
							OFFSET 0.0 0.0 0.0
						}
					}
				}
			}
		}
	}
}
MOTION
Frames:	4
Frame Time:	0.0333333
0.000000 0.000000 0.000000 0.000000 0.000000 -0.000000 -2.783070 92.097100 -1.815920 87.903000 0.682024 2.668240 15.735700 0.000005 -0.000001 75.192800 85.483900 -71.479900 8.984550 -0.406207 -0.000000 1.060060 -2.524340 7.444180 16.377300 -0.000001 -0.000001 1.992080 -1.139120 -1.365720 6.456720 -0.000001 -0.000000 -2.518850 -2.326920 16.911400 12.994200 -0.242716 4.980390 -84.053700 -11.338400 -62.086000 5.348090 -0.000007 -0.000001 -50.177100 -58.915300 -74.548200 24.328600 0.000019 0.000005 0.259109 0.287505 -42.032100 22.291600 -0.000001 0.000005 19.139500 5.568280 -9.600840 12.994500 -0.242716 -4.980390 90.020100 -0.052348 -68.971200 -5.348130 -0.000001 -0.000004 -61.365400 74.677700 15.390000 -24.328900 0.000322 -0.000009 22.593300 0.296490 -89.288300 -22.291500 -0.000108 -0.000004 31.486000 5.654190 -15.429100 -2.192480 -6.469440 -0.000000 -167.640000 -15.109600 -2.938970 39.081100 -0.000007 -0.000012 -0.145436 0.423223 18.964900 40.985400 -0.000006 -0.000013 -7.929780 2.606250 -61.132400 11.754300 -0.000000 0.000003 -0.000089 -0.000929 -16.613300 -2.192510 6.469440 -0.000001 175.382000 20.724800 178.378000 -39.081100 -0.002282 -0.040193 -0.078150 0.228300 19.639800 -40.985400 0.000008 0.000006 -3.804390 2.009400 -63.578300 -11.754300 -0.000006 -0.000006 -0.004793 -0.059453 -18.992000
0.000000 0.000000 0.000000 0.000000 0.000000 -0.000000 -2.825440 92.103100 -1.837040 87.833100 0.770227 2.685160 15.735700 0.000005 -0.000001 76.019000 85.481300 -72.286900 8.984550 -0.406207 -0.000000 1.093880 -2.399510 7.482000 16.377300 -0.000001 -0.000001 1.968690 -1.369890 -1.040830 6.456720 -0.000001 -0.000000 -2.501190 -2.473440 16.823900 12.994200 -0.242716 4.980390 -84.104100 -11.490600 -62.598100 5.348090 -0.000007 -0.000001 -48.731400 -57.962300 -67.441500 24.328600 0.000019 0.000005 0.788763 0.969646 -39.142900 22.291600 -0.000001 0.000005 19.457800 5.556900 -9.037240 12.994500 -0.242716 -4.980390 90.017000 -0.043698 -68.775400 -5.348130 -0.000001 -0.000004 -61.296500 74.725100 15.262300 -24.328900 0.000322 -0.000009 22.694600 0.306545 -89.267800 -22.291500 -0.000108 -0.000004 31.564900 5.653800 -15.389400 -2.192480 -6.469440 -0.000000 -167.520000 -15.115000 -2.926110 39.081100 -0.000007 -0.000012 -0.146362 0.427333 18.906500 40.985400 -0.000006 -0.000013 -7.949930 2.748360 -61.063600 11.754300 -0.000000 0.000003 -0.000090 -0.000937 -16.613600 -2.192510 6.469440 -0.000001 175.507000 20.758500 178.389000 -39.081100 -0.002282 -0.040193 -0.075937 0.222194 19.632000 -40.985400 0.000008 0.000006 -3.575580 1.920920 -63.595300 -11.754300 -0.000006 -0.000006 -0.004332 -0.054851 -18.804500
0.000000 0.000000 0.000000 0.000000 0.000000 -0.000000 -2.845070 92.099500 -1.853210 87.836100 0.799355 2.714750 15.735700 0.000005 -0.000001 77.021100 85.458700 -73.291700 8.984550 -0.406207 -0.000000 1.169900 -2.253370 7.476500 16.377300 -0.000001 -0.000001 1.914720 -1.607350 -0.668199 6.456720 -0.000001 -0.000000 -2.492640 -2.706540 16.721000 12.994200 -0.242716 4.980390 -84.125600 -11.648200 -62.996700 5.348090 -0.000007 -0.000001 -48.117200 -56.817600 -61.326900 24.328600 0.000019 0.000005 1.041790 1.432190 -36.034500 22.291600 -0.000001 0.000005 19.624700 5.547220 -8.575850 12.994500 -0.242716 -4.980390 90.013100 -0.033453 -68.666900 -5.348130 -0.000001 -0.000004 -61.397100 74.666700 15.352400 -24.328900 0.000322 -0.000009 22.734900 0.300230 -89.284300 -22.291500 -0.000108 -0.000004 31.518100 5.654700 -15.481200 -2.192480 -6.469440 -0.000000 -167.504000 -15.175700 -2.932480 39.081100 -0.000007 -0.000012 -0.145607 0.424418 18.935900 40.985400 -0.000006 -0.000013 -7.943120 2.814690 -61.045100 11.754300 -0.000000 0.000003 -0.000082 -0.000870 -16.611000 -2.192510 6.469440 -0.000001 175.521000 20.656900 178.389000 -39.081100 -0.002282 -0.040193 -0.076021 0.221965 19.669900 -40.985400 0.000008 0.000006 -3.603670 1.826700 -63.617900 -11.754300 -0.000006 -0.000006 -0.004523 -0.056770 -18.882700
0.000000 0.000000 0.000000 0.000000 0.000000 -0.000000 -2.865220 92.093700 -1.886370 87.769300 0.825453 2.682870 15.735700 0.000005 -0.000001 77.985800 85.457300 -74.254700 8.984550 -0.406207 -0.000000 1.200810 -2.103780 7.478690 16.377300 -0.000001 -0.000001 1.883200 -1.892480 -0.213531 6.456720 -0.000001 -0.000000 -2.538180 -2.975010 16.655600 12.994200 -0.242716 4.980390 -84.217700 -11.683200 -63.431900 5.348090 -0.000007 -0.000001 -47.897400 -55.747700 -56.482200 24.328600 0.000019 0.000005 1.192880 1.864860 -32.616100 22.291600 -0.000001 0.000005 19.583600 5.534310 -7.984780 12.994500 -0.242716 -4.980390 90.022500 -0.057290 -68.522100 -5.348130 -0.000001 -0.000004 -61.710700 74.672000 15.566100 -24.328900 0.000322 -0.000009 22.783800 0.318344 -89.242900 -22.291500 -0.000108 -0.000004 31.580300 5.654810 -15.493600 -2.192480 -6.469440 -0.000000 -167.434000 -15.198100 -3.061560 39.081100 -0.000007 -0.000012 -0.147729 0.427926 19.045900 40.985400 -0.000006 -0.000013 -7.942110 2.870430 -61.056200 11.754300 -0.000000 0.000003 -0.000080 -0.000853 -16.610400 -2.192510 6.469440 -0.000001 175.638000 20.621400 178.324000 -39.081100 -0.002282 -0.040193 -0.074481 0.217557 19.678100 -40.985400 0.000008 0.000006 -3.644230 1.748890 -63.609600 -11.754300 -0.000006 -0.000006 -0.004642 -0.057959 -18.931100
